<svg width="30" height="30" viewBox="0 0 30 30" fill="none" xmlns="http://www.w3.org/2000/svg">
<g clip-path="url(#clip0_111_438)">
<path opacity="0.2" d="M15 20.625C18.1066 20.625 20.625 18.1066 20.625 15C20.625 11.8934 18.1066 9.375 15 9.375C11.8934 9.375 9.375 11.8934 9.375 15C9.375 18.1066 11.8934 20.625 15 20.625Z" fill="#01884F"/>
<path d="M15 15L26.25 3.75" stroke="#01884F" stroke-width="2" stroke-linecap="round" stroke-linejoin="round"/>
<path d="M22.9571 7.0429C20.9627 5.04245 18.2899 3.86367 15.4678 3.73985C12.6457 3.61603 9.87995 4.5562 7.71796 6.37429C5.55598 8.19237 4.15533 10.7559 3.79323 13.5574C3.43113 16.3589 4.13398 19.1943 5.76267 21.5023C7.39135 23.8103 9.82717 25.4228 12.588 26.0206C15.3489 26.6184 18.2335 26.1579 20.671 24.7303C23.1086 23.3026 24.9213 21.012 25.7505 18.3116C26.5797 15.6112 26.3649 12.6979 25.1485 10.1484" stroke="#01884F" stroke-width="2" stroke-linecap="round" stroke-linejoin="round"/>
<path d="M18.9726 11.0272C18.0436 10.1008 16.8194 9.52905 15.5127 9.41132C14.206 9.2936 12.8993 9.63732 11.8197 10.3828C10.74 11.1282 9.9556 12.2283 9.60266 13.492C9.24973 14.7556 9.35059 16.103 9.88771 17.3C10.4248 18.497 11.3643 19.4681 12.5429 20.0445C13.7215 20.6209 15.0648 20.7663 16.3394 20.4553C17.614 20.1444 18.7395 19.3968 19.5202 18.3423C20.301 17.2879 20.6877 15.9933 20.6133 14.6835" stroke="#01884F" stroke-linecap="round" stroke-linejoin="round"/>
</g>
<defs>
<clipPath id="clip0_111_438">
<rect width="30" height="30" fill="white"/>
</clipPath>
</defs>
</svg>
