<svg width="172" height="85" viewBox="0 0 172 85" fill="none" xmlns="http://www.w3.org/2000/svg">
<rect x="0.65" y="0.65" width="170.7" height="83.7" rx="8.35" fill="#F9F9F9" fill-opacity="0.25"/>
<rect x="0.65" y="0.65" width="170.7" height="83.7" rx="8.35" stroke="#006D3E" stroke-width="0.7" stroke-dasharray="1.4 1.4"/>
<path d="M84.6989 42V33.8571H76.5559V31.1429H84.6989V23H87.4132V31.1429H95.5562V33.8571H87.4132V42H84.6989Z" fill="#006D3E"/>
<path d="M49.6399 61.0654H47.3331L50.848 50.8836H53.6222L57.1321 61.0654H54.8253L52.2749 53.2103H52.1953L49.6399 61.0654ZM49.4957 57.0633H54.9446V58.7437H49.4957V57.0633ZM60.7763 61.1897C60.1963 61.1897 59.6709 61.0406 59.2003 60.7423C58.733 60.4407 58.3617 59.9982 58.0866 59.4149C57.8149 58.8282 57.679 58.109 57.679 57.2572C57.679 56.3822 57.8198 55.6547 58.1016 55.0747C58.3833 54.4913 58.7578 54.0555 59.2251 53.7671C59.6958 53.4755 60.2112 53.3296 60.7713 53.3296C61.1989 53.3296 61.5552 53.4026 61.8402 53.5484C62.1286 53.6909 62.3606 53.8699 62.5362 54.0853C62.7152 54.2974 62.8511 54.5062 62.9439 54.7117H63.0085V50.8836H65.1214V61.0654H63.0334V59.8424H62.9439C62.8445 60.0545 62.7036 60.265 62.5213 60.4738C62.3423 60.6793 62.1087 60.85 61.8203 60.9859C61.5353 61.1218 61.1873 61.1897 60.7763 61.1897ZM61.4474 59.5044C61.7888 59.5044 62.0772 59.4115 62.3125 59.2259C62.5511 59.037 62.7334 58.7735 62.8594 58.4355C62.9886 58.0974 63.0533 57.7013 63.0533 57.2472C63.0533 56.7932 62.9903 56.3988 62.8643 56.064C62.7384 55.7293 62.5561 55.4707 62.3175 55.2884C62.0788 55.1061 61.7888 55.015 61.4474 55.015C61.0994 55.015 60.8061 55.1095 60.5675 55.2984C60.3288 55.4873 60.1482 55.7491 60.0256 56.0839C59.9029 56.4186 59.8416 56.8064 59.8416 57.2472C59.8416 57.6914 59.9029 58.0841 60.0256 58.4255C60.1515 58.7636 60.3321 59.0287 60.5675 59.221C60.8061 59.4099 61.0994 59.5044 61.4474 59.5044ZM69.6767 61.1897C69.0967 61.1897 68.5713 61.0406 68.1007 60.7423C67.6333 60.4407 67.2621 59.9982 66.987 59.4149C66.7153 58.8282 66.5794 58.109 66.5794 57.2572C66.5794 56.3822 66.7202 55.6547 67.002 55.0747C67.2837 54.4913 67.6582 54.0555 68.1255 53.7671C68.5962 53.4755 69.1116 53.3296 69.6717 53.3296C70.0993 53.3296 70.4556 53.4026 70.7406 53.5484C71.0289 53.6909 71.2609 53.8699 71.4366 54.0853C71.6156 54.2974 71.7515 54.5062 71.8443 54.7117H71.9089V50.8836H74.0218V61.0654H71.9338V59.8424H71.8443C71.7449 60.0545 71.604 60.265 71.4217 60.4738C71.2427 60.6793 71.0091 60.85 70.7207 60.9859C70.4357 61.1218 70.0877 61.1897 69.6767 61.1897ZM70.3478 59.5044C70.6892 59.5044 70.9776 59.4115 71.2129 59.2259C71.4515 59.037 71.6338 58.7735 71.7598 58.4355C71.889 58.0974 71.9537 57.7013 71.9537 57.2472C71.9537 56.7932 71.8907 56.3988 71.7647 56.064C71.6388 55.7293 71.4565 55.4707 71.2179 55.2884C70.9792 55.1061 70.6892 55.015 70.3478 55.015C69.9998 55.015 69.7065 55.1095 69.4679 55.2984C69.2292 55.4873 69.0486 55.7491 68.926 56.0839C68.8033 56.4186 68.742 56.8064 68.742 57.2472C68.742 57.6914 68.8033 58.0841 68.926 58.4255C69.0519 58.7636 69.2325 59.0287 69.4679 59.221C69.7065 59.4099 69.9998 59.5044 70.3478 59.5044ZM81.1958 50.8836V61.0654H79.0431V50.8836H81.1958ZM82.9272 61.0654V53.4291H84.9457V54.7764H85.0352C85.1942 54.3289 85.4594 53.9759 85.8306 53.7174C86.2018 53.4589 86.646 53.3296 87.163 53.3296C87.6867 53.3296 88.1325 53.4606 88.5004 53.7224C88.8683 53.9809 89.1135 54.3322 89.2362 54.7764H89.3157C89.4715 54.3389 89.7532 53.9892 90.1609 53.7274C90.5719 53.4622 91.0574 53.3296 91.6175 53.3296C92.3301 53.3296 92.9085 53.5567 93.3526 54.0107C93.8001 54.4615 94.0238 55.1012 94.0238 55.9298V61.0654H91.9109V56.3474C91.9109 55.9231 91.7982 55.605 91.5728 55.3928C91.3474 55.1807 91.0657 55.0747 90.7276 55.0747C90.3432 55.0747 90.0432 55.1973 89.8278 55.4426C89.6123 55.6845 89.5046 56.0043 89.5046 56.4021V61.0654H87.4513V56.3026C87.4513 55.9281 87.3436 55.6298 87.1282 55.4078C86.9161 55.1857 86.636 55.0747 86.288 55.0747C86.0527 55.0747 85.8406 55.1343 85.6516 55.2536C85.466 55.3696 85.3185 55.5337 85.2092 55.7458C85.0998 55.9546 85.0451 56.1999 85.0451 56.4816V61.0654H82.9272ZM97.8743 61.2096C97.3871 61.2096 96.9529 61.1251 96.5717 60.9561C96.1906 60.7837 95.889 60.5302 95.6669 60.1954C95.4482 59.8573 95.3388 59.4364 95.3388 58.9326C95.3388 58.5084 95.4167 58.1521 95.5724 57.8637C95.7282 57.5754 95.9403 57.3434 96.2088 57.1677C96.4773 56.992 96.7822 56.8595 97.1236 56.77C97.4683 56.6805 97.8295 56.6175 98.2074 56.5811C98.6515 56.5347 99.0095 56.4916 99.2812 56.4518C99.553 56.4087 99.7502 56.3457 99.8729 56.2629C99.9955 56.18 100.057 56.0574 100.057 55.895V55.8651C100.057 55.5503 99.9574 55.3067 99.7585 55.1343C99.563 54.962 99.2846 54.8758 98.9233 54.8758C98.5421 54.8758 98.2389 54.9603 98.0135 55.1294C97.7881 55.2951 97.639 55.5039 97.5661 55.7558L95.6072 55.5967C95.7067 55.1327 95.9022 54.7316 96.1939 54.3936C96.4856 54.0522 96.8617 53.7903 97.3224 53.608C97.7865 53.4224 98.3234 53.3296 98.9332 53.3296C99.3575 53.3296 99.7635 53.3794 100.151 53.4788C100.542 53.5782 100.889 53.7323 101.19 53.9411C101.495 54.1499 101.736 54.4184 101.911 54.7465C102.087 55.0713 102.175 55.4608 102.175 55.9149V61.0654H100.166V60.0065H100.107C99.9839 60.2451 99.8198 60.4556 99.6143 60.6379C99.4089 60.8169 99.1619 60.9577 98.8736 61.0605C98.5852 61.1599 98.2521 61.2096 97.8743 61.2096ZM98.4808 59.748C98.7924 59.748 99.0675 59.6866 99.3061 59.564C99.5447 59.4381 99.732 59.269 99.8679 59.0569C100.004 58.8448 100.072 58.6045 100.072 58.336V57.5257C100.005 57.5687 99.9143 57.6085 99.7983 57.645C99.6856 57.6781 99.558 57.7096 99.4155 57.7394C99.273 57.766 99.1304 57.7908 98.9879 57.814C98.8454 57.8339 98.7161 57.8521 98.6001 57.8687C98.3516 57.9052 98.1345 57.9632 97.9489 58.0427C97.7633 58.1222 97.6191 58.23 97.5163 58.3659C97.4136 58.4984 97.3622 58.6642 97.3622 58.863C97.3622 59.1514 97.4666 59.3718 97.6754 59.5242C97.8875 59.6734 98.156 59.748 98.4808 59.748ZM107.258 64.0882C106.572 64.0882 105.984 63.9937 105.493 63.8048C105.006 63.6192 104.618 63.3656 104.33 63.0441C104.042 62.7226 103.854 62.3614 103.768 61.9603L105.727 61.6968C105.787 61.8493 105.881 61.9918 106.01 62.1244C106.14 62.257 106.31 62.363 106.522 62.4426C106.738 62.5254 107 62.5669 107.308 62.5669C107.769 62.5669 108.148 62.4542 108.446 62.2288C108.748 62.0067 108.899 61.6338 108.899 61.1102V59.7132H108.809C108.717 59.9253 108.577 60.1258 108.392 60.3147C108.206 60.5036 107.967 60.6578 107.676 60.7771C107.384 60.8964 107.036 60.9561 106.632 60.9561C106.058 60.9561 105.536 60.8235 105.066 60.5583C104.598 60.2899 104.225 59.8805 103.947 59.3303C103.672 58.7768 103.534 58.0775 103.534 57.2323C103.534 56.3673 103.675 55.6447 103.957 55.0647C104.239 54.4847 104.613 54.0505 105.081 53.7622C105.551 53.4738 106.067 53.3296 106.627 53.3296C107.054 53.3296 107.412 53.4026 107.701 53.5484C107.989 53.6909 108.221 53.8699 108.397 54.0853C108.576 54.2974 108.713 54.5062 108.809 54.7117H108.889V53.4291H110.992V61.14C110.992 61.7896 110.833 62.3332 110.515 62.7707C110.196 63.2082 109.756 63.5363 109.192 63.7551C108.632 63.9771 107.987 64.0882 107.258 64.0882ZM107.303 59.3651C107.644 59.3651 107.933 59.2806 108.168 59.1116C108.407 58.9392 108.589 58.694 108.715 58.3758C108.844 58.0543 108.909 57.6698 108.909 57.2224C108.909 56.7749 108.846 56.3872 108.72 56.059C108.594 55.7276 108.412 55.4707 108.173 55.2884C107.934 55.1061 107.644 55.015 107.303 55.015C106.955 55.015 106.662 55.1095 106.423 55.2984C106.184 55.484 106.004 55.7425 105.881 56.074C105.758 56.4054 105.697 56.7882 105.697 57.2224C105.697 57.6632 105.758 58.0444 105.881 58.3659C106.007 58.684 106.188 58.931 106.423 59.1066C106.662 59.279 106.955 59.3651 107.303 59.3651ZM116.157 61.2146C115.372 61.2146 114.696 61.0555 114.129 60.7373C113.565 60.4158 113.131 59.9617 112.826 59.3751C112.521 58.7851 112.369 58.0874 112.369 57.282C112.369 56.4965 112.521 55.8071 112.826 55.2139C113.131 54.6206 113.56 54.1582 114.114 53.8268C114.671 53.4954 115.324 53.3296 116.073 53.3296C116.577 53.3296 117.046 53.4108 117.48 53.5732C117.917 53.7323 118.298 53.9726 118.623 54.2941C118.951 54.6156 119.207 55.02 119.389 55.5072C119.571 55.9911 119.662 56.5579 119.662 57.2075V57.7892H113.214V56.4767H117.669C117.669 56.1717 117.602 55.9016 117.47 55.6663C117.337 55.431 117.153 55.247 116.918 55.1144C116.686 54.9785 116.416 54.9106 116.108 54.9106C115.786 54.9106 115.501 54.9852 115.252 55.1343C115.007 55.2802 114.815 55.4774 114.676 55.7259C114.537 55.9712 114.465 56.2446 114.462 56.5463V57.7941C114.462 58.172 114.532 58.4984 114.671 58.7735C114.813 59.0486 115.014 59.2607 115.272 59.4099C115.531 59.559 115.837 59.6336 116.192 59.6336C116.427 59.6336 116.643 59.6005 116.838 59.5342C117.034 59.4679 117.201 59.3685 117.341 59.2359C117.48 59.1033 117.586 58.9409 117.659 58.7487L119.618 58.8779C119.518 59.3486 119.314 59.7596 119.006 60.1109C118.701 60.4589 118.307 60.7307 117.823 60.9262C117.342 61.1185 116.787 61.2146 116.157 61.2146Z" fill="#006D3E"/>
</svg>
