<svg width="15" height="15" viewBox="0 0 15 15" fill="none" xmlns="http://www.w3.org/2000/svg">
<g clip-path="url(#clip0_637_375)">
<path d="M6.15876 13.3458C6.28063 13.2239 6.28063 13.0258 6.15876 12.9039L1.06687 7.81202L14.6875 7.81202C14.86 7.81202 15 7.67204 15 7.49954C15 7.32704 14.86 7.18703 14.6875 7.18703L1.06687 7.18703L6.15812 2.09579C6.27999 1.97392 6.27999 1.77578 6.15812 1.65391C6.03624 1.53203 5.83811 1.53203 5.71623 1.65391L0.0918462 7.27829C0.0631053 7.30703 0.0399606 7.34204 0.02373 7.38016C0.00811456 7.41827 -2.8868e-05 7.45891 -2.88697e-05 7.49954C-2.88715e-05 7.54018 0.00808594 7.58078 0.02373 7.61893C0.0393455 7.65769 0.0624902 7.69205 0.0918462 7.72079L5.71623 13.3452C5.83875 13.4677 6.03624 13.4677 6.15876 13.3458Z" fill="#989797"/>
</g>
<defs>
<clipPath id="clip0_637_375">
<rect width="15" height="15" fill="white" transform="translate(15) rotate(90)"/>
</clipPath>
</defs>
</svg>
