<svg width="30" height="30" viewBox="0 0 30 30" fill="none" xmlns="http://www.w3.org/2000/svg">
<g clip-path="url(#clip0_111_428)">
<path d="M24.375 -0.000487962H5.625C5.37873 -0.000631745 5.13485 0.0477684 4.9073 0.141945C4.67975 0.236122 4.47299 0.374228 4.29885 0.548366C4.12472 0.722505 3.98661 0.92926 3.89243 1.15681C3.79826 1.38436 3.74986 1.62824 3.75 1.87451V28.1245C3.74996 28.4778 3.8497 28.8239 4.03774 29.123C4.22577 29.422 4.49445 29.6619 4.81284 29.815C5.13123 29.968 5.48637 30.0281 5.83738 29.9882C6.18839 29.9482 6.52099 29.81 6.79688 29.5894L15 23.025L23.2031 29.5894C23.479 29.81 23.8116 29.9482 24.1626 29.9882C24.5136 30.0281 24.8688 29.968 25.1872 29.815C25.5055 29.6619 25.7742 29.422 25.9623 29.123C26.1503 28.8239 26.25 28.4778 26.25 28.1245V1.87451C26.2501 1.62824 26.2017 1.38436 26.1076 1.15681C26.0134 0.92926 25.8753 0.722505 25.7011 0.548366C25.527 0.374228 25.3203 0.236122 25.0927 0.141945C24.8652 0.0477684 24.6213 -0.000631745 24.375 -0.000487962ZM22.5 24.2225L16.1719 19.1597C15.839 18.8941 15.4258 18.7495 15 18.7495C14.5742 18.7495 14.161 18.8941 13.8281 19.1597L7.5 24.2225V3.74951H22.5V24.2225Z" fill="#5E5E5E"/>
</g>
<defs>
<clipPath id="clip0_111_428">
<rect width="30" height="30" fill="white"/>
</clipPath>
</defs>
</svg>
