<svg width="36" height="36" viewBox="0 0 36 36" fill="none" xmlns="http://www.w3.org/2000/svg">
<path d="M20.5199 18.0002L29.3399 9.18015C29.6685 8.84483 29.8515 8.39337 29.8492 7.92388C29.8468 7.45439 29.6592 7.0048 29.3272 6.67281C28.9953 6.34083 28.5457 6.15327 28.0762 6.1509C27.6067 6.14853 27.1552 6.33154 26.8199 6.66015L17.9999 15.4802L9.17991 6.66015C8.84459 6.33154 8.39313 6.14853 7.92363 6.1509C7.45414 6.15327 7.00456 6.34083 6.67257 6.67281C6.34059 7.0048 6.15303 7.45439 6.15066 7.92388C6.14829 8.39337 6.33129 8.84483 6.65991 9.18015L15.4799 18.0002L6.65991 26.8202C6.33129 27.1555 6.14829 27.6069 6.15066 28.0764C6.15303 28.5459 6.34059 28.9955 6.67257 29.3275C7.00456 29.6595 7.45414 29.847 7.92363 29.8494C8.39313 29.8518 8.84459 29.6688 9.17991 29.3402L17.9999 20.5202L26.8199 29.3402C27.1552 29.6688 27.6067 29.8518 28.0762 29.8494C28.5457 29.847 28.9953 29.6595 29.3272 29.3275C29.6592 28.9955 29.8468 28.5459 29.8492 28.0764C29.8515 27.6069 29.6685 27.1555 29.3399 26.8202L20.5199 18.0002Z" fill="#006D3E"/>
</svg>
