<svg width="24" height="24" viewBox="0 0 24 24" fill="none" xmlns="http://www.w3.org/2000/svg">
<path d="M14.5199 12.0002L23.3399 3.18015C23.6685 2.84483 23.8515 2.39337 23.8492 1.92388C23.8468 1.45439 23.6592 1.0048 23.3272 0.672815C22.9953 0.34083 22.5457 0.153273 22.0762 0.150902C21.6067 0.14853 21.1552 0.331536 20.8199 0.660151L11.9999 9.48015L3.17991 0.660151C2.84459 0.331536 2.39313 0.14853 1.92363 0.150902C1.45414 0.153273 1.00456 0.34083 0.672571 0.672815C0.340585 1.0048 0.153029 1.45439 0.150658 1.92388C0.148286 2.39337 0.331292 2.84483 0.659907 3.18015L9.47991 12.0002L0.659907 20.8202C0.331292 21.1555 0.148286 21.6069 0.150658 22.0764C0.153029 22.5459 0.340585 22.9955 0.672571 23.3275C1.00456 23.6595 1.45414 23.847 1.92363 23.8494C2.39313 23.8518 2.84459 23.6688 3.17991 23.3402L11.9999 14.5202L20.8199 23.3402C21.1552 23.6688 21.6067 23.8518 22.0762 23.8494C22.5457 23.847 22.9953 23.6595 23.3272 23.3275C23.6592 22.9955 23.8468 22.5459 23.8492 22.0764C23.8515 21.6069 23.6685 21.1555 23.3399 20.8202L14.5199 12.0002Z" fill="#006D3E"/>
</svg>
