<svg width="31" height="31" viewBox="0 0 31 31" fill="none" xmlns="http://www.w3.org/2000/svg">
<circle cx="15.5" cy="15.5" r="15.5" fill="#2A6956" fill-opacity="0.2"/>
<g clip-path="url(#clip0_399_514)">
<path d="M15.5 8.9375C11.3574 8.9375 8 11.665 8 15.0312C8 16.4844 8.62695 17.8145 9.66992 18.8604C9.30371 20.3369 8.0791 21.6523 8.06445 21.667C8 21.7344 7.98242 21.834 8.02051 21.9219C8.05859 22.0098 8.14062 22.0625 8.23438 22.0625C10.1768 22.0625 11.6328 21.1309 12.3535 20.5566C13.3115 20.917 14.375 21.125 15.5 21.125C19.6426 21.125 23 18.3975 23 15.0312C23 11.665 19.6426 8.9375 15.5 8.9375Z" fill="#01884F"/>
</g>
<defs>
<clipPath id="clip0_399_514">
<rect width="15" height="15" fill="white" transform="translate(8 8)"/>
</clipPath>
</defs>
</svg>
