<svg width="30" height="30" viewBox="0 0 30 30" fill="none" xmlns="http://www.w3.org/2000/svg">
<g clip-path="url(#clip0_182_702)">
<path d="M14.2672 24.8385V20.8327C11.3323 20.4674 9.12228 17.9633 9.12228 15C9.12228 12.0371 11.3319 9.53267 14.2672 9.16771V5.16161H9.00393C8.65314 7.10159 6.95695 8.51822 4.98048 8.51822C2.72195 8.51822 0.891113 6.68737 0.891113 4.42885C0.891113 2.17068 2.72195 0.339844 4.98048 0.339844C6.95695 0.339844 8.65314 1.75647 9.00393 3.69644H20.996C21.3468 1.75647 23.043 0.339844 25.0194 0.339844C27.278 0.339844 29.1088 2.17068 29.1088 4.42885C29.1088 6.68737 27.278 8.51822 25.0194 8.51822C23.043 8.51822 21.3468 7.10159 20.996 5.16161H15.7327V9.16771C18.6677 9.53267 20.8776 12.0371 20.8776 15C20.8776 17.963 18.6677 20.4678 15.7327 20.8327V24.8385H20.996C21.3468 22.8985 23.043 21.4819 25.0194 21.4819C27.278 21.4819 29.1088 23.3127 29.1088 25.5712C29.1088 27.8294 27.278 29.6602 25.0194 29.6602C23.043 29.6602 21.3468 28.2436 20.996 26.3036H9.00393C8.65314 28.2436 6.95695 29.6602 4.98048 29.6602C2.72195 29.6602 0.891113 27.8294 0.891113 25.5712C0.891113 23.3127 2.72195 21.4819 4.98048 21.4819C6.95695 21.4819 8.65314 22.8985 9.00393 24.8385H14.2672ZM15 10.5875C12.5629 10.5875 10.5874 12.5633 10.5874 15C10.5874 17.4371 12.5629 19.4125 15 19.4125C17.4371 19.4125 19.4125 17.4371 19.4125 15C19.4125 12.5633 17.4371 10.5875 15 10.5875ZM4.98048 22.947C3.53125 22.947 2.35628 24.122 2.35628 25.5712C2.35628 27.0201 3.53125 28.1951 4.98048 28.1951C6.4297 28.1951 7.60432 27.0201 7.60432 25.5712C7.60432 24.122 6.4297 22.947 4.98048 22.947ZM4.98048 1.80501C3.53125 1.80501 2.35628 2.97963 2.35628 4.42885C2.35628 5.87843 3.5309 7.05305 4.98048 7.05305C6.4297 7.05305 7.60432 5.87843 7.60432 4.42885C7.60432 2.97963 6.4297 1.80501 4.98048 1.80501ZM25.0194 22.947C23.5702 22.947 22.3956 24.122 22.3956 25.5712C22.3956 27.0201 23.5702 28.1951 25.0194 28.1951C26.4687 28.1951 27.6436 27.0201 27.6436 25.5712C27.6436 24.122 26.4687 22.947 25.0194 22.947ZM25.0194 1.80501C23.5702 1.80501 22.3956 2.97963 22.3956 4.42885C22.3956 5.87843 23.5702 7.05305 25.0194 7.05305C26.469 7.05305 27.6436 5.87843 27.6436 4.42885C27.6436 2.97963 26.4687 1.80501 25.0194 1.80501Z" fill="#F9F9F9"/>
</g>
<defs>
<clipPath id="clip0_182_702">
<rect width="30" height="30" fill="white"/>
</clipPath>
</defs>
</svg>
