<svg width="21" height="22" viewBox="0 0 21 22" fill="none" xmlns="http://www.w3.org/2000/svg">
<path d="M2 21.2623C1.45 21.2623 0.979 21.0663 0.587 20.6743C0.195667 20.283 0 19.8123 0 19.2623V5.2623C0 4.7123 0.195667 4.2413 0.587 3.8493C0.979 3.45797 1.45 3.2623 2 3.2623H10.925L8.925 5.2623H2V19.2623H16V12.3123L18 10.3123V19.2623C18 19.8123 17.8043 20.283 17.413 20.6743C17.021 21.0663 16.55 21.2623 16 21.2623H2ZM13.175 3.8373L14.6 5.2373L8 11.8373V13.2623H9.4L16.025 6.6373L17.45 8.0373L10.25 15.2623H6V11.0123L13.175 3.8373ZM17.45 8.0373L13.175 3.8373L15.675 1.3373C16.075 0.937305 16.5543 0.737305 17.113 0.737305C17.671 0.737305 18.1417 0.937305 18.525 1.3373L19.925 2.7623C20.3083 3.14564 20.5 3.6123 20.5 4.1623C20.5 4.7123 20.3083 5.17897 19.925 5.5623L17.45 8.0373Z" fill="#717971"/>
</svg>
