<svg width="33" height="33" viewBox="0 0 33 33" fill="none" xmlns="http://www.w3.org/2000/svg">
<rect width="33" height="33" rx="8" fill="#8CF8B4" fill-opacity="0.51"/>
<path d="M16 21C17.25 21 18.3127 20.5627 19.188 19.688C20.0627 18.8127 20.5 17.75 20.5 16.5C20.5 15.25 20.0627 14.1873 19.188 13.312C18.3127 12.4373 17.25 12 16 12C14.75 12 13.6873 12.4373 12.812 13.312C11.9373 14.1873 11.5 15.25 11.5 16.5C11.5 17.75 11.9373 18.8127 12.812 19.688C13.6873 20.5627 14.75 21 16 21ZM16 19.2C15.25 19.2 14.6127 18.9373 14.088 18.412C13.5627 17.8873 13.3 17.25 13.3 16.5C13.3 15.75 13.5627 15.1123 14.088 14.587C14.6127 14.0623 15.25 13.8 16 13.8C16.75 13.8 17.3877 14.0623 17.913 14.587C18.4377 15.1123 18.7 15.75 18.7 16.5C18.7 17.25 18.4377 17.8873 17.913 18.412C17.3877 18.9373 16.75 19.2 16 19.2ZM16 24C13.5667 24 11.35 23.3207 9.35 21.962C7.35 20.604 5.9 18.7833 5 16.5C5.9 14.2167 7.35 12.3957 9.35 11.037C11.35 9.679 13.5667 9 16 9C18.4333 9 20.65 9.679 22.65 11.037C24.65 12.3957 26.1 14.2167 27 16.5C26.1 18.7833 24.65 20.604 22.65 21.962C20.65 23.3207 18.4333 24 16 24ZM16 22C17.8833 22 19.6127 21.504 21.188 20.512C22.7627 19.5207 23.9667 18.1833 24.8 16.5C23.9667 14.8167 22.7627 13.479 21.188 12.487C19.6127 11.4957 17.8833 11 16 11C14.1167 11 12.3873 11.4957 10.812 12.487C9.23733 13.479 8.03333 14.8167 7.2 16.5C8.03333 18.1833 9.23733 19.5207 10.812 20.512C12.3873 21.504 14.1167 22 16 22Z" fill="#006D3E"/>
</svg>
