<svg width="30" height="30" viewBox="0 0 30 30" fill="none" xmlns="http://www.w3.org/2000/svg">
<g clip-path="url(#clip0_149_584)">
<path d="M15 9.84375C11.9062 9.84375 9.375 12.375 9.375 15.4688C9.375 18.5625 11.9062 21.0938 15 21.0938C18.0938 21.0938 20.625 18.5625 20.625 15.4688C20.625 12.375 18.0938 9.84375 15 9.84375ZM15 19.2188C12.9375 19.2188 11.25 17.5312 11.25 15.4688C11.25 13.4062 12.9375 11.7188 15 11.7188C17.0625 11.7188 18.75 13.4062 18.75 15.4688C18.75 17.5312 17.0625 19.2188 15 19.2188Z" fill="#01884F"/>
<path d="M15 23.625C11.5078 23.625 8.15625 25.0781 5.76563 27.6328L5.13281 28.3125L6.49219 29.6016L7.125 28.9219C9.1875 26.7187 11.9766 25.5 15 25.5C18.0234 25.5 20.8125 26.7187 22.875 28.9219L23.5078 29.6016L24.8672 28.3125L24.2344 27.6328C21.8438 25.1016 18.4922 23.625 15 23.625Z" fill="#01884F"/>
<path d="M22.7344 11.2266V13.1016C24.9375 13.1016 26.9766 13.9922 28.5 15.6094L29.8594 14.3203C28.0313 12.3516 25.4297 11.2266 22.7344 11.2266Z" fill="#01884F"/>
<path d="M27.2109 4.6875C27.2109 2.22656 25.1953 0.210938 22.7344 0.210938C20.2734 0.210938 18.2578 2.22656 18.2578 4.6875C18.2578 7.14844 20.2734 9.16406 22.7344 9.16406C25.1953 9.16406 27.2109 7.14844 27.2109 4.6875ZM20.1328 4.6875C20.1328 3.25781 21.3047 2.08594 22.7344 2.08594C24.1641 2.08594 25.3359 3.25781 25.3359 4.6875C25.3359 6.11719 24.1641 7.28906 22.7344 7.28906C21.3047 7.28906 20.1328 6.11719 20.1328 4.6875Z" fill="#01884F"/>
<path d="M7.26562 11.2266C4.57031 11.2266 1.96875 12.3516 0.140625 14.3203L1.5 15.6094C3 13.9922 5.0625 13.1016 7.26562 13.1016V11.2266Z" fill="#01884F"/>
<path d="M11.7422 4.6875C11.7422 2.22656 9.72656 0.210938 7.26562 0.210938C4.80469 0.210938 2.78906 2.22656 2.78906 4.6875C2.78906 7.14844 4.80469 9.16406 7.26562 9.16406C9.72656 9.16406 11.7422 7.14844 11.7422 4.6875ZM7.26562 7.28906C5.83594 7.28906 4.66406 6.11719 4.66406 4.6875C4.66406 3.25781 5.83594 2.08594 7.26562 2.08594C8.69531 2.08594 9.86719 3.25781 9.86719 4.6875C9.86719 6.11719 8.69531 7.28906 7.26562 7.28906Z" fill="#01884F"/>
</g>
<defs>
<clipPath id="clip0_149_584">
<rect width="30" height="30" fill="white"/>
</clipPath>
</defs>
</svg>
