<svg width="30" height="30" viewBox="0 0 30 30" fill="none" xmlns="http://www.w3.org/2000/svg">
<path d="M11.347 14.2891H10.2261V16.3528H11.347V14.2891Z" fill="#010101"/>
<path d="M11.347 18.416H10.2261V20.4794H11.347V18.416Z" fill="#010101"/>
<path d="M11.347 10.1621H10.2261V12.2255H11.347V10.1621Z" fill="#010101"/>
<path d="M14.7864 18.416H13.6655V20.4794H14.7864V18.416Z" fill="#010101"/>
<path d="M14.7864 14.2891H13.6655V16.3528H14.7864V14.2891Z" fill="#010101"/>
<path d="M14.7864 10.1621H13.6655V12.2255H14.7864V10.1621Z" fill="#010101"/>
<path d="M22.2662 16.6685H20.0732V17.7893H22.2662V16.6685Z" fill="#010101"/>
<path d="M22.2662 19.4194H20.0732V20.5403H22.2662V19.4194Z" fill="#010101"/>
<path d="M18.5705 23.8401H22.5895C23.8129 23.8401 24.8088 22.8441 24.8088 21.6204V13.4205L18.5701 13.4195V6.18359H6.44287V23.8404H17.4496L18.5705 23.8401ZM23.6879 14.5414V21.6204C23.6879 22.2263 23.1947 22.7192 22.5895 22.7192H18.5705V14.5401L23.6879 14.5414ZM7.56375 22.7192V7.30447H17.4492V13.4192V22.7189L7.56375 22.7192Z" fill="#010101"/>
</svg>
