<svg width="30" height="30" viewBox="0 0 30 30" fill="none" xmlns="http://www.w3.org/2000/svg">
<path fill-rule="evenodd" clip-rule="evenodd" d="M6.5625 4.6875H3.75C3.00375 4.6875 2.28844 4.98375 1.76156 5.51156C1.23375 6.03844 0.9375 6.75375 0.9375 7.5V22.5C0.9375 23.2463 1.23375 23.9616 1.76156 24.4884C2.28844 25.0163 3.00375 25.3125 3.75 25.3125C8.58187 25.3125 21.4181 25.3125 26.25 25.3125C26.9963 25.3125 27.7116 25.0163 28.2384 24.4884C28.7663 23.9616 29.0625 23.2463 29.0625 22.5V7.5C29.0625 6.75375 28.7663 6.03844 28.2384 5.51156C27.7116 4.98375 26.9963 4.6875 26.25 4.6875H23.4375V3.75C23.4375 2.19656 22.1784 0.9375 20.625 0.9375H9.375C7.82156 0.9375 6.5625 2.19656 6.5625 3.75V4.6875ZM2.8125 11.6597V22.5C2.8125 22.7484 2.91094 22.9875 3.08719 23.1628C3.2625 23.3391 3.50156 23.4375 3.75 23.4375H26.25C26.4984 23.4375 26.7375 23.3391 26.9128 23.1628C27.0891 22.9875 27.1875 22.7484 27.1875 22.5V11.6606C27.1875 11.6606 17.9466 15.7228 17.8172 15.7247H17.8125V16.8862C17.8125 17.4047 17.3925 17.8237 16.875 17.8237H13.125C12.6075 17.8237 12.1875 17.4047 12.1875 16.8862V15.7209C12.06 15.7209 2.8125 11.6597 2.8125 11.6597ZM15.9375 13.125V15.9487H14.0625V13.125H15.9375ZM27.1875 9.60938V7.5C27.1875 7.25156 27.0891 7.0125 26.9128 6.83719C26.7375 6.66094 26.4984 6.5625 26.25 6.5625H3.75C3.50156 6.5625 3.2625 6.66094 3.08719 6.83719C2.91094 7.0125 2.8125 7.25156 2.8125 7.5V9.60938L12.1875 13.7587V12.1875C12.1875 11.67 12.6075 11.25 13.125 11.25H16.875C17.3925 11.25 17.8125 11.67 17.8125 12.1875V13.7616L27.1875 9.60938ZM21.5625 4.6875V3.75C21.5625 3.2325 21.1425 2.8125 20.625 2.8125H9.375C8.8575 2.8125 8.4375 3.2325 8.4375 3.75V4.6875H21.5625Z" fill="#F9F9F9"/>
</svg>
