<svg width="30" height="30" viewBox="0 0 30 30" fill="none" xmlns="http://www.w3.org/2000/svg">
<path d="M15 12.5C16.375 12.5 17.5 11.375 17.5 10V5C17.5 3.625 16.375 2.5 15 2.5C13.625 2.5 12.5 3.625 12.5 5V10C12.5 11.375 13.625 12.5 15 12.5Z" fill="#F9F9F9"/>
<path d="M23.875 6.125C23.5 5.75 23.125 5.625 22.5 5.625C21.5 5.625 20.625 6.5 20.625 7.5C20.625 8 20.875 8.5 21.125 8.875C22.75 10.5 23.625 12.625 23.625 15C23.625 19.875 19.75 23.75 14.875 23.75C10 23.75 6.125 19.875 6.125 15C6.125 12.625 7.125 10.375 8.75 8.875C9.125 8.5 9.375 8 9.375 7.5C9.375 6.5 8.5 5.625 7.5 5.625C7 5.625 6.5 5.875 6.125 6.125C3.875 8.375 2.5 11.5 2.5 15C2.5 21.875 8.125 27.5 15 27.5C21.875 27.5 27.5 21.875 27.5 15C27.5 11.5 26.125 8.375 23.875 6.125Z" fill="#F9F9F9"/>
</svg>
