<svg width="30" height="30" viewBox="0 0 30 30" fill="none" xmlns="http://www.w3.org/2000/svg">
<path d="M27.919 22.8469L24.4971 18.6469L24.3752 11.25C24.3792 11.2001 24.3792 11.1499 24.3752 11.1C23.2971 5.23125 19.8846 1.875 15.0002 1.875C9.84396 1.875 5.70021 5.625 4.68771 11.0812C4.68264 11.1374 4.68264 11.1939 4.68771 11.25L4.56584 18.75L2.00646 22.95C1.92418 23.0925 1.88086 23.2542 1.88086 23.4187C1.88086 23.5833 1.92418 23.745 2.00646 23.8875C2.08587 24.0327 2.20229 24.1543 2.3439 24.2399C2.4855 24.3255 2.64725 24.3721 2.81271 24.375H11.2502C11.2502 25.3696 11.6453 26.3234 12.3486 27.0266C13.0518 27.7299 14.0056 28.125 15.0002 28.125C15.9948 28.125 16.9486 27.7299 17.6519 27.0266C18.3551 26.3234 18.7502 25.3696 18.7502 24.375H27.1877C27.3644 24.3745 27.5374 24.3241 27.6867 24.2295C27.836 24.135 27.9555 24.0002 28.0315 23.8406C28.1084 23.6813 28.1387 23.5034 28.1188 23.3275C28.0989 23.1516 28.0296 22.985 27.919 22.8469ZM15.0002 26.25C14.5029 26.25 14.026 26.0525 13.6744 25.7008C13.3228 25.3492 13.1252 24.8723 13.1252 24.375H16.8752C16.8752 24.8723 16.6777 25.3492 16.326 25.7008C15.9744 26.0525 15.4975 26.25 15.0002 26.25ZM4.47209 22.5L6.34709 19.4625C6.43134 19.3205 6.47662 19.1588 6.47834 18.9937L6.56271 11.3438C7.41584 6.79688 10.8002 3.75 15.0002 3.75C20.2783 3.75 21.9658 8.4375 22.5002 11.3438L22.6315 18.9937C22.6327 19.2052 22.7054 19.4101 22.8377 19.575L25.219 22.5H4.47209Z" fill="black"/>
<circle cx="21" cy="6" r="6" fill="#FF5556"/>
</svg>
