<svg width="48" height="48" viewBox="0 0 48 48" fill="none" xmlns="http://www.w3.org/2000/svg">
<circle cx="24" cy="24" r="24" fill="#F4F4F4"/>
<path d="M24.0005 37.3359C25.4672 37.3359 26.6672 36.1359 26.6672 34.6693H21.3339C21.3339 36.1359 22.5339 37.3359 24.0005 37.3359ZM32.0005 29.3359V22.6693C32.0005 18.5759 29.8272 15.1493 26.0005 14.2426V13.3359C26.0005 12.2293 25.1072 11.3359 24.0005 11.3359C22.8939 11.3359 22.0005 12.2293 22.0005 13.3359V14.2426C18.1872 15.1493 16.0005 18.5626 16.0005 22.6693V29.3359L13.3339 32.0026V33.3359H34.6672V32.0026L32.0005 29.3359ZM29.3339 30.6693H18.6672V22.6693C18.6672 19.3626 20.6805 16.6693 24.0005 16.6693C27.3205 16.6693 29.3339 19.3626 29.3339 22.6693V30.6693Z" fill="#191C1A"/>
</svg>
