<svg width="31" height="31" viewBox="0 0 31 31" fill="none" xmlns="http://www.w3.org/2000/svg">
<circle cx="15.5" cy="15.5" r="15.5" fill="#E1E9FE"/>
<path d="M18.625 9.875H12.375C11.8682 9.88649 11.3867 10.098 11.0354 10.4634C10.6841 10.8287 10.4916 11.3182 10.5 11.825V19.8375C10.4873 20.1132 10.5663 20.3854 10.7246 20.6115C10.8829 20.8376 11.1116 21.005 11.375 21.0875C11.6089 21.1663 11.8614 21.1713 12.0984 21.102C12.3353 21.0327 12.5453 20.8924 12.7 20.7L15.5 18.2L18.3 20.7C18.4168 20.8369 18.5627 20.9461 18.727 21.0196C18.8914 21.0931 19.07 21.1291 19.25 21.125C19.3796 21.1256 19.5085 21.1045 19.6312 21.0625C19.8946 20.98 20.1233 20.8126 20.2816 20.5865C20.4398 20.3604 20.5188 20.0882 20.5062 19.8125V11.825C20.5146 11.3172 20.3213 10.8267 19.9686 10.4612C19.616 10.0957 19.1328 9.88486 18.625 9.875Z" fill="#6993FF"/>
</svg>
