<svg width="15" height="15" viewBox="0 0 15 15" fill="none" xmlns="http://www.w3.org/2000/svg">
<path d="M2.99997 3.825H3.00003L2.9999 3.81673C2.9937 3.44201 3.13601 3.08006 3.39577 2.80991C3.65432 2.54102 4.0083 2.38483 4.38106 2.375H10.6197C10.9936 2.38344 11.3491 2.53914 11.6088 2.80834C11.8695 3.07862 12.0125 3.44126 12.0063 3.81676L12.0062 3.81676V3.825V11.8125V11.8239L12.0067 11.8354C12.0143 12.0008 11.9669 12.1641 11.8719 12.2998C11.777 12.4354 11.6398 12.5359 11.4817 12.5854L11.4817 12.5852L11.4695 12.5894C11.3995 12.6133 11.3261 12.6253 11.2522 12.625L11.2522 12.6248L11.2385 12.6251C11.1328 12.6276 11.0278 12.6064 10.9312 12.5632C10.8347 12.52 10.7489 12.4558 10.6803 12.3754L10.6583 12.3496L10.633 12.327L7.83297 9.82703L7.49997 9.5297L7.16696 9.82703L4.36696 12.327L4.33614 12.3545L4.31026 12.3867C4.2197 12.4994 4.09676 12.5816 3.95803 12.6221C3.8193 12.6627 3.67147 12.6597 3.53448 12.6136L3.53451 12.6135L3.52444 12.6104C3.36641 12.5609 3.2292 12.4604 3.13423 12.3248C3.03926 12.1891 2.99187 12.0258 2.99944 11.8604L2.99997 11.8489V11.8375V3.825Z" fill="#F9F9F9" stroke="#6993FF"/>
</svg>
