<svg width="48" height="52" viewBox="0 0 48 52" fill="none" xmlns="http://www.w3.org/2000/svg">
<circle cx="24" cy="28" r="24" fill="#F4F4F4"/>
<path d="M24.0005 41.3359C25.4672 41.3359 26.6672 40.1359 26.6672 38.6693H21.3339C21.3339 40.1359 22.5339 41.3359 24.0005 41.3359ZM32.0005 33.3359V26.6693C32.0005 22.5759 29.8272 19.1493 26.0005 18.2426V17.3359C26.0005 16.2293 25.1072 15.3359 24.0005 15.3359C22.8939 15.3359 22.0005 16.2293 22.0005 17.3359V18.2426C18.1872 19.1493 16.0005 22.5626 16.0005 26.6693V33.3359L13.3339 36.0026V37.3359H34.6672V36.0026L32.0005 33.3359ZM29.3339 34.6693H18.6672V26.6693C18.6672 23.3626 20.6805 20.6693 24.0005 20.6693C27.3205 20.6693 29.3339 23.3626 29.3339 26.6693V34.6693Z" fill="#191C1A"/>
<circle cx="39" cy="9" r="9" fill="#476806"/>
<path d="M35.6989 12.2102V11.3409L39.5341 5.27273H40.1648V6.61932H39.7386L36.8409 11.2045V11.2727H42.0057V12.2102H35.6989ZM39.8068 14V11.946V11.5412V5.27273H40.8125V14H39.8068Z" fill="white"/>
</svg>
