<svg width="21" height="19" viewBox="0 0 21 19" fill="none" xmlns="http://www.w3.org/2000/svg">
<path d="M2.5 19C1.95 19 1.47933 18.8043 1.088 18.413C0.696 18.021 0.5 17.55 0.5 17V6C0.5 5.45 0.696 4.97933 1.088 4.588C1.47933 4.196 1.95 4 2.5 4H6.5V2C6.5 1.45 6.696 0.979 7.088 0.587C7.47933 0.195667 7.95 0 8.5 0H12.5C13.05 0 13.521 0.195667 13.913 0.587C14.3043 0.979 14.5 1.45 14.5 2V4H18.5C19.05 4 19.521 4.196 19.913 4.588C20.3043 4.97933 20.5 5.45 20.5 6V17C20.5 17.55 20.3043 18.021 19.913 18.413C19.521 18.8043 19.05 19 18.5 19H2.5ZM2.5 17H18.5V6H2.5V17ZM8.5 4H12.5V2H8.5V4Z" fill="#006D3E"/>
</svg>
