<svg width="79" height="79" viewBox="0 0 79 79" fill="none" xmlns="http://www.w3.org/2000/svg">
<circle cx="39.5" cy="39.5" r="39.5" fill="#E0FFAC"/>
<path d="M33 43.5C28.32 43.5 19 45.84 19 50.5V54H47V50.5C47 45.84 37.68 43.5 33 43.5ZM23.68 50C25.36 48.84 29.42 47.5 33 47.5C36.58 47.5 40.64 48.84 42.32 50H23.68ZM33 40C36.86 40 40 36.86 40 33C40 29.14 36.86 26 33 26C29.14 26 26 29.14 26 33C26 36.86 29.14 40 33 40ZM33 30C34.66 30 36 31.34 36 33C36 34.66 34.66 36 33 36C31.34 36 30 34.66 30 33C30 31.34 31.34 30 33 30ZM47.08 43.62C49.4 45.3 51 47.54 51 50.5V54H59V50.5C59 46.46 52 44.16 47.08 43.62ZM45 40C48.86 40 52 36.86 52 33C52 29.14 48.86 26 45 26C43.92 26 42.92 26.26 42 26.7C43.26 28.48 44 30.66 44 33C44 35.34 43.26 37.52 42 39.3C42.92 39.74 43.92 40 45 40Z" fill="#476806"/>
</svg>
